<svg xmlns="http://www.w3.org/2000/svg" xml:space="preserve" width="2048" height="2048" style="shape-rendering:geometricPrecision;text-rendering:geometricPrecision;image-rendering:optimizeQuality;fill-rule:evenodd;clip-rule:evenodd"><defs><style>.fil0{fill:none}.fil2{fill:#fffffe;fill-rule:nonzero}</style></defs><g id="Layer_x0020_1"><path class="fil0" d="M0 0h2048v2048H0z"/><path class="fil0" d="M0 0h2048v2048H0z"/><rect width="2048" height="2048" rx="256.001" ry="256.001" style="fill:#ffca28"/><path class="fil2" d="M1401.21 941.302c67.13 0 129.027 21.985 178.433 58.936 47.557 35.565 83.549 85.048 101.552 142.217 32.643 24.149 59.693 55.123 78.9 90.762 20.385 37.82 31.911 80.754 31.911 126.213 0 73.877-30.39 142.436-79.762 192.292-48.558 49.032-115.606 79.932-190.28 79.952-201.933.065-474.79-.97-660.158.246-10.406.07-20.94.14-30.391-.514-56.484-3.921-107.027-28.8-143.39-66.661-36.4-37.9-58.665-88.69-58.665-144.49 0-58.59 24.512-111.612 64.138-149.967 39.429-38.165 93.73-61.77 153.555-61.77 1.435 0 2.882.014 4.338.045 10.806-41.112 33.963-77.39 65.408-104.882 38.612-33.758 89.619-54.313 145.42-54.313 22.341 0 43.974 3.32 64.395 9.473a218.684 218.684 0 0 1 29.57 11.309c23.59-34.985 54.92-64.617 91.63-86.605 44.711-26.781 97.274-42.242 153.397-42.242z"/><path d="M640.232 642.231c104.934 0 189.999 85.065 189.999 189.999 0 42.112-13.708 81.017-36.895 112.514a260.084 260.084 0 0 0-32.528-2.041c-62.256 0-122.255 22.217-169.153 63.219a251.695 251.695 0 0 0-8.34 7.63c-77.127-24.186-133.083-96.218-133.083-181.322 0-104.934 85.066-190 190-190z" style="fill:#fffffe"/><path class="fil2" d="M1106.03 864.653c68.362 0 131.398 22.389 181.71 60.019a300.492 300.492 0 0 1 4.088 3.114 328.328 328.328 0 0 0-60.458 28.306c-32.966 19.746-62.242 45.203-86.22 75.113a251.662 251.662 0 0 0-9.303-3.005 255.177 255.177 0 0 0-73.63-10.833c-61.273 0-120.324 21.867-166.481 62.222-30.383 26.564-53.794 60.07-67.91 97.648-58.611 4.4-114.018 28.855-156.585 70.057-47.07 45.56-73.882 107.337-73.882 172.96 0 53.931 18.131 105.315 50.818 147.285-32.157.094-62.837.229-91.459.417-10.596.07-21.324.141-30.95-.524-57.52-3.993-108.991-29.329-146.022-67.885-37.07-38.597-59.743-90.319-59.743-147.143 0-59.668 24.962-113.663 65.315-152.724 40.154-38.865 95.452-62.904 156.376-62.904 1.462 0 2.935.015 4.419.046 11.004-41.867 34.586-78.81 66.61-106.808 39.32-34.378 91.264-55.31 148.09-55.31a227.03 227.03 0 0 1 65.578 9.646 222.814 222.814 0 0 1 30.112 11.517c24.025-35.627 55.93-65.804 93.314-88.195 45.532-27.273 99.06-43.018 156.213-43.018zM608.546 607.924V447.998h64.001v159.926zM416.791 863.238h-159.79v-64.002h159.79zM504.963 1012.11 391.975 1125.1l-45.25-45.25 112.988-112.991zM459.713 695.615 346.725 582.628l45.25-45.251 112.988 112.988zM943.334 863.238h-79.026v-64.002h159.86v33.115a335.15 335.15 0 0 0-80.834 30.887zM934.444 582.628 821.407 695.666l-45.251-45.25 113.038-113.039z"/></g></svg>
